<?xml version="1.0" encoding="utf-8"?>
<!-- Generator: Adobe Illustrator 24.3.0, SVG Export Plug-In . SVG Version: 6.00 Build 0)  -->
<svg version="1.1" id="Livello_1" xmlns="http://www.w3.org/2000/svg" xmlns:xlink="http://www.w3.org/1999/xlink" x="0px" y="0px"
	 viewBox="0 0 63 63" style="enable-background:new 0 0 63 63;" xml:space="preserve">
<style type="text/css">
	.st0{fill:#FFFFFF;}
	.st1{fill:#E83E8C;}
</style>
<g>
	<path class="st0" d="M31.5,0C14.1,0,0,14.1,0,31.5S14.1,63,31.5,63c1.3,0,2.6-0.1,3.8-0.2l-17-17l26.5-26.6l17.8,17.8
		c0.3-1.8,0.5-3.6,0.5-5.4C63,14.1,48.9,0,31.5,0z"/>
	<path class="st0" d="M18.3,45.7l17,17c13.8-1.7,24.9-12.3,27.2-25.8L44.7,19.1L18.3,45.7z"/>
</g>
<path class="st1" d="M44.7,19.1c-1.3-1.3-3.5-1.3-4.8,0l-8.5,8.5L23,19.1c-1.4-1.3-3.5-1.2-4.8,0.1c-1.3,1.3-1.3,3.4,0,4.7l8.5,8.5
	l-8.5,8.5c-1.3,1.4-1.2,3.5,0.1,4.8c1.3,1.3,3.4,1.3,4.7,0l8.5-8.5l8.5,8.5c1.4,1.2,3.6,1.1,4.8-0.3c1.2-1.3,1.2-3.2,0-4.5l-8.5-8.5
	l8.5-8.5C46.1,22.6,46.1,20.5,44.7,19.1z"/>
</svg>
