<?xml version="1.0" encoding="utf-8"?>
<!-- Generator: Adobe Illustrator 24.3.0, SVG Export Plug-In . SVG Version: 6.00 Build 0)  -->
<svg version="1.1" id="Livello_1" xmlns="http://www.w3.org/2000/svg" xmlns:xlink="http://www.w3.org/1999/xlink" x="0px" y="0px"
	 viewBox="0 0 62.97 62.97" style="enable-background:new 0 0 62.97 62.97;" xml:space="preserve">
<style type="text/css">
	.st0{fill:#C8E4D7;}
	.st1{fill:#B6C7BD;}
	.st2{fill:#EE7016;}
</style>
<path class="st0" d="M31.48,0C14.1,0,0,14.1,0,31.48s14.1,31.48,31.48,31.48c1.29,0,2.56-0.09,3.81-0.24L18.28,45.7l26.46-26.58
	L62.5,36.89c0.3-1.76,0.47-3.56,0.47-5.41C62.97,14.1,48.87,0,31.48,0z"/>
<path class="st1" d="M18.28,45.7L35.3,62.73c13.8-1.67,24.85-12.26,27.2-25.84L44.74,19.13L18.28,45.7z"/>
<path class="st2" d="M44.74,19.13c-1.33-1.32-3.47-1.32-4.8,0l-8.47,8.47l-8.48-8.47c-1.36-1.3-3.51-1.25-4.81,0.11
	c-1.26,1.32-1.26,3.39,0,4.71l8.47,8.47l-8.47,8.47c-1.3,1.36-1.25,3.51,0.11,4.81c1.32,1.26,3.39,1.26,4.71,0l8.47-8.47l8.47,8.47
	c1.41,1.25,3.56,1.12,4.81-0.28c1.15-1.29,1.15-3.24-0.01-4.53l-8.47-8.47l8.47-8.47C46.06,22.62,46.06,20.46,44.74,19.13z"/>
</svg>
