<?xml version="1.0" encoding="utf-8"?>
<!-- Generator: Adobe Illustrator 24.3.0, SVG Export Plug-In . SVG Version: 6.00 Build 0)  -->
<svg version="1.1" id="Livello_1" xmlns="http://www.w3.org/2000/svg" xmlns:xlink="http://www.w3.org/1999/xlink" x="0px" y="0px"
	 viewBox="0 0 62.97 62.97" style="enable-background:new 0 0 62.97 62.97;" xml:space="preserve">
<style type="text/css">
	.st0{fill:#C8E4D7;}
	.st1{fill:#B6C7BD;}
	.st2{fill:#EE7016;}
</style>
<path class="st0" d="M31.48,0C14.1,0,0,14.1,0,31.48s14.1,31.48,31.48,31.48c3.23,0,6.34-0.49,9.28-1.39l-10.7-10.7l2.23-9.07
	l-5.3-11.59l0.46-10.99l2.26-0.32l2.5-6.53l4.37-2.13l26.03,26.03c0.24-1.56,0.36-3.16,0.36-4.79C62.97,14.1,48.87,0,31.48,0z"/>
<path class="st1" d="M32.21,12.37l-2.5,6.53l-2.26,0.32l-0.46,10.99l5.3,11.59l-2.23,9.07l10.7,10.7
	c11.38-3.5,20.01-13.29,21.84-25.31L36.57,10.24L32.21,12.37z"/>
<path class="st2" d="M39.16,17.86h-5.1v-4.9h2.52v-2.73h-10.3v2.73h2.62v4.9H23.8v2.73h2.48v10.37v4.78v5.1l3.78,3.45v6.58h2.73
	V44.3l3.78-3.45v-5.1v-4.78V20.59h2.59V17.86z M33.85,30.97h-4.84V20.59h4.84V30.97z"/>
</svg>
