<?xml version="1.0" encoding="utf-8"?>
<!-- Generator: Adobe Illustrator 24.3.0, SVG Export Plug-In . SVG Version: 6.00 Build 0)  -->
<svg version="1.1" id="Livello_1" xmlns="http://www.w3.org/2000/svg" xmlns:xlink="http://www.w3.org/1999/xlink" x="0px" y="0px"
	 viewBox="0 0 62.97 62.97" style="enable-background:new 0 0 62.97 62.97;" xml:space="preserve">
<style type="text/css">
	.st0{fill:#FFFFFF;}
	.st1{fill:#EE7016;}
</style>
<path class="st0" d="M31.48,0C14.1,0,0,14.1,0,31.48s14.1,31.48,31.48,31.48c3.23,0,6.34-0.49,9.28-1.39
	c11.38-3.5,20.01-13.29,21.84-25.31L36.57,10.24l0.01,0L62.6,36.26l0.01,0.01c0.24-1.56,0.36-3.16,0.36-4.79
	C62.97,14.1,48.87,0,31.48,0z"/>
<path class="st1" d="M39.16,17.86h-5.1v-4.9h2.52v-2.73h-10.3v2.73h2.62v4.9h-5.1v2.73h2.48v10.37v4.78v5.1l3.78,3.45v6.58h2.73
	V44.3l3.78-3.45v-5.1v-4.78V20.59h2.59V17.86z M33.85,30.97h-4.84V20.59h4.84V30.97z"/>
</svg>
