<?xml version="1.0" encoding="utf-8"?>
<!-- Generator: Adobe Illustrator 24.3.0, SVG Export Plug-In . SVG Version: 6.00 Build 0)  -->
<svg version="1.1" id="Livello_1" xmlns="http://www.w3.org/2000/svg" xmlns:xlink="http://www.w3.org/1999/xlink" x="0px" y="0px"
	 viewBox="0 0 63 63" style="enable-background:new 0 0 63 63;" xml:space="preserve">
<style type="text/css">
	.st0{fill:#FFFFFF;}
	.st1{fill:#E83E8C;}
</style>
<path class="st0" d="M31.5,0C14.1,0,0,14.1,0,31.5S14.1,63,31.5,63c3.2,0,6.3-0.5,9.3-1.4c11.4-3.5,20-13.3,21.8-25.3l-26-26h0
	l26,26l0,0c0.2-1.6,0.4-3.2,0.4-4.8C63,14.1,48.9,0,31.5,0z"/>
<path class="st1" d="M39.2,17.9h-5.1V13h2.5v-2.7H26.3V13h2.6v4.9h-5.1v2.7h2.5V31v4.8v5.1l3.8,3.5v6.6h2.7v-6.6l3.8-3.5v-5.1V31
	V20.6h2.6V17.9z M33.8,31H29V20.6h4.8V31z"/>
</svg>
