<?xml version="1.0" encoding="utf-8"?>
<!-- Generator: Adobe Illustrator 24.3.0, SVG Export Plug-In . SVG Version: 6.00 Build 0)  -->
<svg version="1.1" id="Livello_1" xmlns="http://www.w3.org/2000/svg" xmlns:xlink="http://www.w3.org/1999/xlink" x="0px" y="0px"
	 viewBox="0 0 63 63" style="enable-background:new 0 0 63 63;" xml:space="preserve">
<style type="text/css">
	.st0{fill:#FFFFFF;}
	.st1{fill:#EE7016;}
</style>
<path class="st0" d="M31.5,0C14.1,0,0,14.1,0,31.5S14.1,63,31.5,63c1.7,0,3.4-0.1,5-0.4l0,0c10.5-1.7,19.3-8.6,23.6-18
	c1.8-4,2.9-8.4,2.9-13.1C63,14.1,48.9,0,31.5,0z M29.5,32.4l1.7-8.7l0,0L29.5,32.4l-9.7,13.4l0,0L29.5,32.4z M28.5,14.7L28.5,14.7
	l0.1-1.7L28.5,14.7z"/>
<g>
	<path class="st1" d="M26.9,45.9h-7.1l10.6-23.2l-0.3-1.3c-0.3-1.3-0.8-2.4-1.4-3.4s-1.5-1.5-2.7-1.5c-2.2,0-3.5,1.2-3.8,3.7h-0.9
		c0.3-5.4,1.9-8.1,4.7-8.1c2.3,0,3.9,1.8,4.8,5.5l4.9,19.4c0.5,1.9,1,3.2,1.7,3.9s1.4,1,2.4,1c1,0,1.8-0.3,2.5-0.9
		c0.7-0.6,1-1.5,1.1-2.6h0.9c0,0.5,0,0.9,0,1.2c0,2-0.4,3.6-1.2,4.9s-1.9,1.9-3.5,1.9c-1.3,0-2.3-0.4-2.9-1.2
		c-0.6-0.8-1.2-2.4-1.8-4.7l-2-8L26.9,45.9z"/>
</g>
</svg>
