<?xml version="1.0" encoding="utf-8"?>
<!-- Generator: Adobe Illustrator 24.3.0, SVG Export Plug-In . SVG Version: 6.00 Build 0)  -->
<svg version="1.1" id="Livello_1" xmlns="http://www.w3.org/2000/svg" xmlns:xlink="http://www.w3.org/1999/xlink" x="0px" y="0px"
	 viewBox="0 0 62.97 62.97" style="enable-background:new 0 0 62.97 62.97;" xml:space="preserve">
<style type="text/css">
	.st0{fill:#C8E4D7;}
	.st1{fill:#B6C7BD;}
	.st2{fill:#EE7016;}
</style>
<path class="st0" d="M31.48,0C14.1,0,0,14.1,0,31.48s14.1,31.48,31.48,31.48c1.72,0,3.4-0.14,5.04-0.41l-16.7-16.7l9.73-13.4
	l1.69-8.72l-2.78-9.07l0.15-1.68L60.1,44.6c1.83-4,2.87-8.44,2.87-13.12C62.97,14.1,48.87,0,31.48,0z"/>
<path class="st1" d="M28.46,14.67l2.78,9.07l-1.69,8.72l-9.73,13.4l16.7,16.7C47.04,60.87,55.8,53.97,60.1,44.6L28.61,12.98
	L28.46,14.67z"/>
<g>
	<path class="st2" d="M26.94,45.86l-7.11,0l10.61-23.25l-0.34-1.3c-0.34-1.29-0.8-2.43-1.38-3.43c-0.58-1-1.48-1.5-2.7-1.5
		c-2.22,0-3.5,1.23-3.84,3.69l-0.9,0c0.29-5.41,1.87-8.11,4.74-8.12c2.3,0,3.9,1.83,4.82,5.48l4.89,19.41
		c0.49,1.94,1.04,3.24,1.65,3.9c0.61,0.66,1.42,0.99,2.43,0.99c0.99,0,1.83-0.31,2.5-0.93c0.68-0.62,1.03-1.5,1.06-2.64l0.9,0
		c0.03,0.52,0.05,0.9,0.05,1.15c0,1.99-0.38,3.63-1.15,4.93c-0.77,1.3-1.93,1.94-3.5,1.94c-1.32,0-2.3-0.41-2.93-1.22
		c-0.64-0.81-1.25-2.4-1.83-4.74l-2.05-8.04L26.94,45.86z"/>
</g>
</svg>
