<?xml version="1.0" encoding="utf-8"?>
<!-- Generator: Adobe Illustrator 16.0.0, SVG Export Plug-In . SVG Version: 6.00 Build 0)  -->
<!DOCTYPE svg PUBLIC "-//W3C//DTD SVG 1.1//EN" "http://www.w3.org/Graphics/SVG/1.1/DTD/svg11.dtd">
<svg version="1.1" xmlns="http://www.w3.org/2000/svg" xmlns:xlink="http://www.w3.org/1999/xlink" x="0px" y="0px"
	 width="144.567px" height="51.023px" viewBox="0 0 144.567 51.023" enable-background="new 0 0 144.567 51.023"
	 xml:space="preserve">
<g id="Layer_1">
	<g>
		<g>
			<path fill="#009755" d="M84.054,48.16l2.504-8.125c0.194-0.641,0.582-0.969,1.073-0.969c0.507,0,0.82,0.358,0.925,1.088
				l1.387,9.302c0,0.045,0.015,0.075,0.015,0.119c0,0.328-0.238,0.537-0.552,0.537c-0.357,0-0.536-0.193-0.597-0.596l-1.267-9.049
				l-2.907,9.019c-0.134,0.433-0.357,0.641-0.611,0.641c-0.269,0-0.477-0.208-0.611-0.641l-2.803-9.034l-1.371,9.049
				c-0.06,0.402-0.224,0.611-0.597,0.611c-0.312,0-0.521-0.164-0.521-0.507c0-0.06,0-0.119,0.015-0.179l1.477-9.272
				c0.119-0.746,0.432-1.118,0.954-1.118c0.477,0,0.85,0.328,1.043,0.999L84.054,48.16z"/>
			<path fill="#009755" d="M98.566,45.297c0,0.805-0.135,1.208-0.835,1.208h-5.039c0,1.342,1.342,2.698,2.669,2.698
				c0.834,0,1.356-0.164,2.027-0.76c0.193-0.179,0.432-0.269,0.641-0.269c0.283,0,0.492,0.164,0.492,0.507
				c0,0.12-0.03,0.224-0.104,0.298c-0.701,0.879-1.729,1.327-3.056,1.327c-2.46,0-3.847-1.998-3.847-4.353
				c0-2.191,1.282-4.383,3.607-4.383C97.329,41.57,98.566,43.121,98.566,45.297z M97.463,45.432c0-1.521-0.88-2.758-2.296-2.758
				c-1.431,0-2.46,1.268-2.46,2.758H97.463z"/>
			<path fill="#009755" d="M105.501,41.869c0.447,0,0.671,0.134,0.671,0.447c0,0.224-0.104,0.462-0.312,0.76l-4.204,5.993h4.204
				c0.372,0,0.552,0.164,0.552,0.522c0,0.373-0.18,0.537-0.552,0.537h-4.786c-0.581,0-0.864-0.164-0.864-0.522
				c0-0.194,0.09-0.402,0.269-0.656l4.174-5.993h-3.697c-0.372,0-0.552-0.179-0.552-0.551s0.18-0.537,0.552-0.537H105.501z"/>
			<path fill="#009755" d="M113.303,41.869c0.447,0,0.671,0.134,0.671,0.447c0,0.224-0.104,0.462-0.312,0.76l-4.204,5.993h4.204
				c0.372,0,0.551,0.164,0.551,0.522c0,0.373-0.179,0.537-0.551,0.537h-4.786c-0.581,0-0.864-0.164-0.864-0.522
				c0-0.194,0.09-0.402,0.269-0.656l4.174-5.993h-3.697c-0.372,0-0.552-0.179-0.552-0.551s0.18-0.537,0.552-0.537H113.303z"/>
			<path fill="#009755" d="M116.446,38.425c0.418,0,0.746,0.328,0.746,0.746c0,0.417-0.328,0.745-0.746,0.745
				c-0.417,0-0.745-0.328-0.745-0.745C115.701,38.753,116.029,38.425,116.446,38.425z M115.925,42.211
				c0-0.373,0.193-0.552,0.552-0.552c0.372,0,0.581,0.179,0.581,0.552v7.364c0,0.373-0.193,0.552-0.566,0.552
				s-0.566-0.179-0.566-0.552V42.211z"/>
			<path fill="#009755" d="M126.223,46.042c0,2.236-1.253,4.249-3.608,4.249c-2.37,0-3.607-2.132-3.607-4.353
				s1.237-4.353,3.607-4.353C124.985,41.585,126.223,43.821,126.223,46.042z M120.17,45.834c0,1.521,0.73,3.429,2.444,3.429
				c1.7,0,2.46-1.565,2.46-3.13c0-1.506-0.775-3.474-2.46-3.474C120.9,42.659,120.17,44.269,120.17,45.834z"/>
		</g>
		<g>
			<g>
				<path fill="#0D3755" d="M45.785,8.656c0.237-0.886,0.812-1.191,1.662-0.961c0.888,0.238,1.271,0.797,1.034,1.683L37.814,49.179
					c-0.236,0.887-0.812,1.189-1.699,0.951c-0.886-0.236-1.231-0.787-0.995-1.673L45.785,8.656z"/>
			</g>
			<g>
				<path fill="#0D3755" d="M68.427,8.656c0.239-0.887,0.812-1.188,1.664-0.96c0.887,0.239,1.27,0.796,1.032,1.682L60.458,49.179
					c-0.238,0.887-0.812,1.189-1.699,0.951c-0.888-0.237-1.234-0.787-0.997-1.673L68.427,8.656z"/>
			</g>
			<g>
				<path fill="#0D3755" d="M1.067,2.937c0-0.918,0.44-1.358,1.321-1.358c0.918,0,1.358,0.44,1.358,1.358v23.202h11.785
					c0.918,0,1.358,0.441,1.358,1.322c0,0.918-0.44,1.358-1.358,1.358H2.866c-1.211,0-1.799-0.698-1.799-2.093V2.937z"/>
				<path fill="#0D3755" d="M26.817,7.93c4.883,0,7.453,2.937,7.453,6.645v13.18c0,0.697-0.478,1.358-1.358,1.358
					s-1.321-0.625-1.358-1.322c-0.037-0.698-0.037-0.918-0.037-1.249c-1.578,1.689-3.928,2.57-6.277,2.57
					c-3.598,0-7.049-2.02-7.049-6.131c0-4.295,3.928-6.498,7.783-6.498c2.093,0,4.332,0.624,5.543,1.835v-3.487
					c0-2.533-2.056-4.222-5.507-4.222c-2.386,0-3.928,0.881-5.065,0.881c-0.625,0-1.249-0.294-1.249-1.138
					c0-0.478,0.404-1.065,1.028-1.322C22.339,8.371,24.285,7.93,26.817,7.93z M25.717,26.543c2.79,0,5.764-1.468,5.764-4.001
					c0-2.24-2.79-3.524-5.507-3.524c-2.57,0-5.029,1.175-5.029,3.745C20.944,25.405,23.22,26.543,25.717,26.543z"/>
				<path fill="#0D3755" d="M78.692,0c1.027,0,1.835,0.808,1.835,1.835s-0.808,1.836-1.835,1.836c-1.028,0-1.836-0.808-1.836-1.836
					S77.664,0,78.692,0z M77.407,9.325c0-0.917,0.478-1.358,1.358-1.358c0.918,0,1.432,0.44,1.432,1.358v18.136
					c0,0.918-0.478,1.358-1.396,1.358c-0.917,0-1.395-0.44-1.395-1.358V9.325z"/>
				<path fill="#0D3755" d="M87.154,9.582c0-0.955,0.44-1.432,1.321-1.432c0.918,0,1.358,0.478,1.358,1.432v1.395
					c1.212-2.203,3.341-3.194,5.507-3.194c3.524,0,7.159,2.643,7.159,7.012v12.703c0,0.881-0.44,1.322-1.358,1.322
					c-0.881,0-1.321-0.44-1.321-1.322V15.97c0-3.708-2.46-5.507-4.92-5.507c-2.533,0-5.066,1.873-5.066,5.507v11.528
					c0,0.881-0.44,1.322-1.358,1.322c-0.881,0-1.321-0.44-1.321-1.322V9.582z"/>
				<path fill="#0D3755" d="M115.64,7.93c4.882,0,7.452,2.937,7.452,6.645v13.18c0,0.697-0.478,1.358-1.358,1.358
					s-1.321-0.625-1.358-1.322c-0.036-0.698-0.036-0.918-0.036-1.249c-1.579,1.689-3.929,2.57-6.278,2.57
					c-3.598,0-7.049-2.02-7.049-6.131c0-4.295,3.929-6.498,7.783-6.498c2.093,0,4.332,0.624,5.544,1.835v-3.487
					c0-2.533-2.057-4.222-5.508-4.222c-2.386,0-3.928,0.881-5.066,0.881c-0.624,0-1.248-0.294-1.248-1.138
					c0-0.478,0.404-1.065,1.028-1.322C111.16,8.371,113.106,7.93,115.64,7.93z M114.538,26.543c2.79,0,5.764-1.468,5.764-4.001
					c0-2.24-2.79-3.524-5.507-3.524c-2.57,0-5.03,1.175-5.03,3.745C109.765,25.405,112.041,26.543,114.538,26.543z"/>
				<path fill="#0D3755" d="M135.339,26.506c1.983,0,4.517-0.808,4.517-3.194c0-1.799-2.276-2.827-4.223-3.524
					c-3.341-1.211-7.379-2.827-7.379-5.947c0-4.149,3.487-5.984,7.379-5.984c1.909,0,3.929,0.367,5.69,1.322
					c0.478,0.257,0.698,0.771,0.698,1.285c0,0.845-0.551,1.285-1.249,1.285c-0.257,0-0.551-0.074-0.808-0.22
					c-0.881-0.514-2.68-0.955-4.405-0.955c-2.166,0-4.405,0.771-4.405,2.937c0,1.688,2.863,2.57,5.617,3.708
					c3.01,1.248,6.094,2.533,6.094,5.837c0,4.516-3.965,6.167-7.6,6.167c-2.643,0-4.772-0.881-6.792-2.166
					c-0.33-0.22-0.477-0.661-0.477-1.102c0-1.028,0.514-1.505,1.211-1.505c0.331,0,0.698,0.146,1.065,0.404
					C131.558,25.699,133.283,26.506,135.339,26.506z"/>
			</g>
			<path fill="#0D3755" d="M55.557,13.49c0.239-0.886,0.812-1.189,1.663-0.96c0.887,0.238,1.271,0.796,1.033,1.683l-4.695,17.521
				c-0.237,0.887-0.812,1.189-1.699,0.95c-0.887-0.238-1.235-0.786-0.998-1.673L55.557,13.49z"/>
		</g>
	</g>
</g>
<g id="Layer_2">
</g>
</svg>
