<?xml version="1.0" encoding="utf-8"?>
<!-- Generator: Adobe Illustrator 24.3.0, SVG Export Plug-In . SVG Version: 6.00 Build 0)  -->
<svg version="1.1" id="Livello_1" xmlns="http://www.w3.org/2000/svg" xmlns:xlink="http://www.w3.org/1999/xlink" x="0px" y="0px"
	 viewBox="0 0 62.97 62.97" style="enable-background:new 0 0 62.97 62.97;" xml:space="preserve">
<style type="text/css">
	.st0{fill:#C8E4D7;}
	.st1{fill:#B6C7BD;}
	.st2{fill:#EE7016;}
</style>
<path class="st0" d="M31.48,0C14.1,0,0,14.1,0,31.48s14.1,31.48,31.48,31.48c3.18,0,6.24-0.48,9.13-1.35L14.67,35.65l15.14,6.58
	l18.27-24.9L62.95,32.2c0.01-0.24,0.02-0.48,0.02-0.72C62.97,14.1,48.87,0,31.48,0z"/>
<path class="st1" d="M29.81,42.23l-15.14-6.58l25.95,25.96C53.33,57.77,62.64,46.1,62.95,32.2L48.08,17.33L29.81,42.23z"/>
<path class="st2" d="M48.07,17.32c-1.37-1.01-3.29-0.72-4.3,0.65c0,0,0,0,0,0L28.43,38.78l-9.81-7.85c-1.3-1.09-3.24-0.92-4.34,0.39
	c-1.09,1.3-0.92,3.24,0.39,4.34c0.03,0.03,0.07,0.06,0.1,0.08l12.31,9.85c0.55,0.43,1.22,0.67,1.92,0.66c0.97,0,1.89-0.45,2.48-1.23
	l17.23-23.39c1.01-1.36,0.72-3.29-0.64-4.3C48.07,17.32,48.07,17.32,48.07,17.32z"/>
</svg>
