<?xml version="1.0" encoding="utf-8"?>
<!-- Generator: Adobe Illustrator 24.3.0, SVG Export Plug-In . SVG Version: 6.00 Build 0)  -->
<svg version="1.1" id="Livello_1" xmlns="http://www.w3.org/2000/svg" xmlns:xlink="http://www.w3.org/1999/xlink" x="0px" y="0px"
	 viewBox="0 0 63 63" style="enable-background:new 0 0 63 63;" xml:space="preserve">
<style type="text/css">
	.st0{fill:#FFFFFF;}
	.st1{fill:#E83E8C;}
</style>
<path class="st0" d="M31.5,0C14.1,0,0,14.1,0,31.5S14.1,63,31.5,63c3.2,0,6.2-0.5,9.1-1.3l-25.9-26l26,26
	c12.7-3.8,22-15.5,22.3-29.4c0-0.2,0-0.5,0-0.7C63,14.1,48.9,0,31.5,0z"/>
<path class="st1" d="M48.1,17.3c-1.4-1-3.3-0.7-4.3,0.6l0,0L28.4,38.8l-9.8-7.9c-1.3-1.1-3.2-0.9-4.3,0.4c-1.1,1.3-0.9,3.2,0.4,4.3
	c0,0,0.1,0.1,0.1,0.1l12.3,9.8c0.5,0.4,1.2,0.7,1.9,0.7c1,0,1.9-0.5,2.5-1.2l17.2-23.4C49.7,20.3,49.4,18.3,48.1,17.3L48.1,17.3z"/>
</svg>
