<?xml version="1.0" encoding="utf-8"?>
<!-- Generator: Adobe Illustrator 24.3.0, SVG Export Plug-In . SVG Version: 6.00 Build 0)  -->
<svg version="1.1" id="Livello_1" xmlns="http://www.w3.org/2000/svg" xmlns:xlink="http://www.w3.org/1999/xlink" x="0px" y="0px"
	 viewBox="0 0 62.97 62.97" style="enable-background:new 0 0 62.97 62.97;" xml:space="preserve">
<style type="text/css">
	.st0{fill:#C8E4D7;}
	.st1{fill:#B6C7BD;}
	.st2{fill:#EE7016;}
</style>
<path class="st0" d="M31.48,0C14.1,0,0,14.1,0,31.48s14.1,31.48,31.48,31.48c2.62,0,5.17-0.33,7.6-0.93L12.67,35.61l1.15-8.89
	l4.43-1.95l4.15,1.5l4.53,0.66l5.12-3.43l1.13-4.36l3.55-3.71l4.19,1.13l2.55-0.47l19.25,19.25c0.15-1.26,0.24-2.55,0.24-3.85
	C62.97,14.1,48.87,0,31.48,0z"/>
<path class="st1" d="M40.92,16.56l-4.19-1.13l-3.55,3.71l-1.13,4.36l-5.12,3.43l-4.53-0.66l-4.15-1.5l-4.43,1.95l-1.15,8.89
	l26.42,26.43c12.5-3.1,22.05-13.67,23.64-26.7L43.47,16.09L40.92,16.56z"/>
<path class="st2" d="M45.75,42.52c-0.15-2.03-1.09-3.87-2.63-5.2v0c-0.92-0.79-2.01-1.34-3.19-1.62l-0.03-6.87
	c0.27-0.07,0.53-0.15,0.79-0.24c1.91-0.7,3.43-2.1,4.28-3.95c0.85-1.84,0.94-3.91,0.24-5.82c-0.7-1.91-2.11-3.43-3.95-4.28
	c-3.81-1.76-8.34-0.1-10.1,3.71c-0.66,1.44-0.86,3.05-0.56,4.6l-6.37,2.89c-0.74-0.95-1.69-1.71-2.78-2.21
	c-1.84-0.85-3.91-0.94-5.82-0.24c-1.91,0.7-3.43,2.1-4.28,3.95c-0.85,1.84-0.94,3.91-0.24,5.82c0.58,1.58,1.63,2.89,3.05,3.79
	c0.29,0.18,0.59,0.35,0.9,0.49c2.83,1.31,6.22,0.72,8.46-1.42l7.44,4.73c-1,2.93-0.14,6.17,2.25,8.22c0.27,0.24,0.57,0.45,0.88,0.65
	c1.25,0.79,2.66,1.18,4.06,1.18c2.16,0,4.31-0.91,5.79-2.64C45.26,46.52,45.9,44.55,45.75,42.52z M18.25,26.43
	c0.57,0,1.14,0.12,1.68,0.37c0.16,0.08,0.32,0.16,0.47,0.26c0.39,0.25,0.73,0.56,1.02,0.94c0.36,0.48,0.61,1.03,0.74,1.66
	c0.14,0.69,0.09,1.42-0.15,2.09l-0.05,0.15c-0.02,0.07-0.04,0.14-0.07,0.21c-0.2,0.43-0.48,0.82-0.84,1.17
	c-0.42,0.41-0.89,0.71-1.41,0.9c-1,0.37-2.09,0.32-3.06-0.12c-0.97-0.45-1.71-1.25-2.07-2.25c-0.37-1-0.33-2.09,0.12-3.06
	c0.45-0.97,1.25-1.71,2.25-2.07C17.32,26.51,17.79,26.43,18.25,26.43z M41.19,45.71c-0.69,0.81-1.66,1.3-2.73,1.38
	c-1.07,0.08-2.1-0.26-2.91-0.95c-1.25-1.07-1.71-2.78-1.16-4.35c0.17-0.49,0.41-0.92,0.73-1.29c0.04-0.04,0.08-0.08,0.12-0.11
	l0.14-0.13c0.52-0.51,1.16-0.87,1.85-1.03c0.2-0.05,0.41-0.09,0.62-0.11c0.09-0.01,0.19-0.01,0.28-0.01c0.3,0,0.61,0.04,0.91,0.1
	c0.45,0.1,0.87,0.28,1.25,0.51c0.16,0.1,0.32,0.22,0.47,0.35c0.81,0.69,1.3,1.66,1.38,2.73C42.23,43.86,41.89,44.9,41.19,45.71
	L41.19,45.71z M25.72,29.02l6.36-2.89c0.53,0.68,1.17,1.26,1.89,1.72c0.28,0.18,0.59,0.35,0.9,0.49c0.45,0.21,0.93,0.37,1.42,0.49
	l0.03,6.87c-1.3,0.32-2.46,0.96-3.43,1.89l-7.44-4.74C25.87,31.64,25.96,30.31,25.72,29.02z M39.75,17.81
	c0.17,0.08,0.33,0.16,0.48,0.26c0.74,0.47,1.29,1.16,1.6,1.99c0.37,1,0.32,2.09-0.12,3.06c-0.45,0.97-1.25,1.71-2.25,2.07
	c-0.1,0.04-0.21,0.06-0.31,0.08l-0.15,0.03c-0.63,0.15-1.24,0.16-1.81,0.03c-0.29-0.07-0.54-0.15-0.79-0.27
	c-0.57-0.26-1.06-0.67-1.47-1.2c-0.38-0.5-0.64-1.06-0.76-1.65c-0.17-0.84-0.07-1.69,0.28-2.45C35.37,17.76,37.75,16.89,39.75,17.81
	z"/>
</svg>
