<?xml version="1.0" encoding="utf-8"?>
<!-- Generator: Adobe Illustrator 24.3.0, SVG Export Plug-In . SVG Version: 6.00 Build 0)  -->
<svg version="1.1" id="Livello_1" xmlns="http://www.w3.org/2000/svg" xmlns:xlink="http://www.w3.org/1999/xlink" x="0px" y="0px"
	 viewBox="0 0 63 63" style="enable-background:new 0 0 63 63;" xml:space="preserve">
<style type="text/css">
	.st0{fill:#FFFFFF;}
	.st1{fill:#E83E8C;}
</style>
<path class="st0" d="M63,31.5C63,14.1,48.9,0,31.5,0C14.1,0,0,14.1,0,31.5S14.1,63,31.5,63c2.6,0,5.2-0.3,7.6-0.9L12.7,35.6L39.1,62
	c12.5-3.1,22-13.7,23.6-26.7l0,0C62.9,34.1,63,32.8,63,31.5z M43.5,16.1L43.5,16.1l-2.5,0.5L43.5,16.1z"/>
<path class="st1" d="M45.8,42.5c-0.2-2-1.1-3.9-2.6-5.2l0,0c-0.9-0.8-2-1.3-3.2-1.6l0-6.9c0.3-0.1,0.5-0.1,0.8-0.2
	c1.9-0.7,3.4-2.1,4.3-4c0.8-1.8,0.9-3.9,0.2-5.8c-0.7-1.9-2.1-3.4-4-4.3c-3.8-1.8-8.3-0.1-10.1,3.7c-0.7,1.4-0.9,3-0.6,4.6l-6.4,2.9
	c-0.7-1-1.7-1.7-2.8-2.2c-1.8-0.9-3.9-0.9-5.8-0.2s-3.4,2.1-4.3,4c-0.9,1.8-0.9,3.9-0.2,5.8c0.6,1.6,1.6,2.9,3.1,3.8
	c0.3,0.2,0.6,0.3,0.9,0.5c2.8,1.3,6.2,0.7,8.5-1.4l7.4,4.7c-1,2.9-0.1,6.2,2.2,8.2c0.3,0.2,0.6,0.5,0.9,0.7c1.2,0.8,2.7,1.2,4.1,1.2
	c2.2,0,4.3-0.9,5.8-2.6C45.3,46.5,45.9,44.5,45.8,42.5z M18.2,26.4c0.6,0,1.1,0.1,1.7,0.4c0.2,0.1,0.3,0.2,0.5,0.3
	c0.4,0.2,0.7,0.6,1,0.9c0.4,0.5,0.6,1,0.7,1.7c0.1,0.7,0.1,1.4-0.1,2.1l0,0.1c0,0.1,0,0.1-0.1,0.2c-0.2,0.4-0.5,0.8-0.8,1.2
	c-0.4,0.4-0.9,0.7-1.4,0.9c-1,0.4-2.1,0.3-3.1-0.1c-1-0.5-1.7-1.2-2.1-2.2c-0.4-1-0.3-2.1,0.1-3.1s1.2-1.7,2.2-2.1
	C17.3,26.5,17.8,26.4,18.2,26.4z M41.2,45.7c-0.7,0.8-1.7,1.3-2.7,1.4s-2.1-0.3-2.9-1c-1.2-1.1-1.7-2.8-1.2-4.3
	c0.2-0.5,0.4-0.9,0.7-1.3c0,0,0.1-0.1,0.1-0.1l0.1-0.1c0.5-0.5,1.2-0.9,1.8-1c0.2,0,0.4-0.1,0.6-0.1c0.1,0,0.2,0,0.3,0
	c0.3,0,0.6,0,0.9,0.1c0.5,0.1,0.9,0.3,1.2,0.5c0.2,0.1,0.3,0.2,0.5,0.3c0.8,0.7,1.3,1.7,1.4,2.7C42.2,43.9,41.9,44.9,41.2,45.7
	L41.2,45.7z M25.7,29l6.4-2.9c0.5,0.7,1.2,1.3,1.9,1.7c0.3,0.2,0.6,0.4,0.9,0.5c0.5,0.2,0.9,0.4,1.4,0.5l0,6.9
	c-1.3,0.3-2.5,1-3.4,1.9l-7.4-4.7C25.9,31.6,26,30.3,25.7,29z M39.8,17.8c0.2,0.1,0.3,0.2,0.5,0.3c0.7,0.5,1.3,1.2,1.6,2
	c0.4,1,0.3,2.1-0.1,3.1c-0.5,1-1.2,1.7-2.2,2.1c-0.1,0-0.2,0.1-0.3,0.1l-0.1,0c-0.6,0.1-1.2,0.2-1.8,0c-0.3-0.1-0.5-0.1-0.8-0.3
	c-0.6-0.3-1.1-0.7-1.5-1.2c-0.4-0.5-0.6-1.1-0.8-1.6c-0.2-0.8-0.1-1.7,0.3-2.5C35.4,17.8,37.8,16.9,39.8,17.8z"/>
</svg>
