<?xml version="1.0" encoding="utf-8"?>
<!-- Generator: Adobe Illustrator 24.3.0, SVG Export Plug-In . SVG Version: 6.00 Build 0)  -->
<svg version="1.1" id="Livello_1" xmlns="http://www.w3.org/2000/svg" xmlns:xlink="http://www.w3.org/1999/xlink" x="0px" y="0px"
	 viewBox="0 0 62.97 62.97" style="enable-background:new 0 0 62.97 62.97;" xml:space="preserve">
<style type="text/css">
	.st0{fill:#C8E4D7;}
	.st1{fill:#B6C7BD;}
	.st2{fill:#EE7016;}
</style>
<path class="st0" d="M31.48,0C14.1,0,0,14.1,0,31.48s14.1,31.48,31.48,31.48c1.84,0,3.64-0.17,5.39-0.47L20.74,46.33l0.13-4.04
	l-1.73-1.73l0.75-14.98l1.17-2l-1.53-1.56l4.71-8l8.15,8.15l4.04-0.64l-4.04-4.04l1.43-1.57l9.3-1.55L62.85,34.1
	c0.07-0.86,0.12-1.73,0.12-2.62C62.97,14.1,48.87,0,31.48,0z"/>
<path class="st1" d="M33.82,15.91l-1.43,1.57l4.04,4.04l-4.04,0.64l-8.15-8.15l-4.71,8l1.53,1.56l-1.17,2l-0.75,14.98l1.73,1.73
	l-0.13,4.04L36.88,62.5c13.98-2.41,24.79-14.04,25.97-28.4L43.12,14.37L33.82,15.91z"/>
<g>
	<path class="st2" d="M22.91,23.46c-0.19,0-0.35,0.16-0.35,0.35v16.51c0,0.19,0.16,0.35,0.35,0.35h1.4c0.19,0,0.35-0.16,0.35-0.35
		V23.81c0-0.19-0.16-0.35-0.35-0.35H22.91z"/>
	<path class="st2" d="M27.82,23.46h-1.4c-0.19,0-0.35,0.16-0.35,0.35v16.51c0,0.19,0.16,0.35,0.35,0.35h1.4
		c0.19,0,0.35-0.16,0.35-0.35V23.81C28.18,23.62,28.02,23.46,27.82,23.46z"/>
	<path class="st2" d="M19.39,40.67h1.4c0.19,0,0.35-0.16,0.35-0.35V23.81c0-0.19-0.16-0.35-0.35-0.35h-1.4
		c-0.19,0-0.35,0.16-0.35,0.35v16.51C19.04,40.51,19.2,40.67,19.39,40.67z"/>
	<path class="st2" d="M19.53,22.02c0.05,0.02,0.1,0.03,0.15,0.03h7.87c0.19,0,0.35-0.16,0.35-0.35c0-0.05-0.01-0.1-0.03-0.15
		l-3.62-7.53c-0.21-0.35-0.65-0.47-1-0.26c-0.11,0.06-0.2,0.15-0.26,0.26l-3.61,7.53C19.28,21.73,19.35,21.94,19.53,22.02z"/>
	<path class="st2" d="M27.82,42.07h-8.43c-0.19,0-0.35,0.16-0.35,0.35v0.35c0,2.52,2.04,4.57,4.57,4.57s4.57-2.04,4.57-4.57v-0.35
		C28.18,42.23,28.02,42.07,27.82,42.07z"/>
	<path class="st2" d="M41.52,13.62H34.5c-1.16,0-2.11,0.94-2.11,2.11v1.76c0,0.19,0.16,0.35,0.35,0.35h2.46c0.39,0,0.7,0.31,0.7,0.7
		c0,0.39-0.31,0.7-0.7,0.7h-2.46c-0.19,0-0.35,0.16-0.35,0.35v3.51c0,0.19,0.16,0.35,0.35,0.35h2.46c0.39,0,0.7,0.31,0.7,0.7
		c0,0.39-0.31,0.7-0.7,0.7h-2.46c-0.19,0-0.35,0.16-0.35,0.35v3.51c0,0.19,0.16,0.35,0.35,0.35h2.46c0.39,0,0.7,0.31,0.7,0.7
		s-0.31,0.7-0.7,0.7h-2.46c-0.19,0-0.35,0.16-0.35,0.35v3.51c0,0.19,0.16,0.35,0.35,0.35h2.46c0.39,0,0.7,0.31,0.7,0.7
		c0,0.39-0.31,0.7-0.7,0.7h-2.46c-0.19,0-0.35,0.16-0.35,0.35v8.78c0,1.16,0.94,2.11,2.11,2.11h7.02c1.16,0,2.11-0.94,2.11-2.11
		v-29.5C43.63,14.57,42.69,13.62,41.52,13.62z M38.01,44.53c-0.97,0-1.76-0.79-1.76-1.76c0-0.97,0.79-1.75,1.76-1.76
		c0.97,0,1.76,0.79,1.76,1.76S38.98,44.53,38.01,44.53z"/>
</g>
</svg>
