<?xml version="1.0" encoding="utf-8"?>
<!-- Generator: Adobe Illustrator 24.3.0, SVG Export Plug-In . SVG Version: 6.00 Build 0)  -->
<svg version="1.1" id="Livello_1" xmlns="http://www.w3.org/2000/svg" xmlns:xlink="http://www.w3.org/1999/xlink" x="0px" y="0px"
	 viewBox="0 0 63 63" style="enable-background:new 0 0 63 63;" xml:space="preserve">
<style type="text/css">
	.st0{fill:#FFFFFF;}
	.st1{fill:#E83E8C;}
</style>
<path class="st0" d="M31.5,0C14.1,0,0,14.1,0,31.5S14.1,63,31.5,63c1.8,0,3.6-0.2,5.4-0.5L20.7,46.3v0l16.1,16.2
	c14-2.4,24.8-14,26-28.4c0.1-0.9,0.1-1.7,0.1-2.6C63,14.1,48.9,0,31.5,0z M20.9,42.3l-1.7-1.7v0L20.9,42.3L20.9,42.3z M21.1,23.6
	L19.5,22v0L21.1,23.6L21.1,23.6z M36.4,21.5l-4-4v0L36.4,21.5L36.4,21.5z"/>
<g>
	<path class="st1" d="M22.9,23.5c-0.2,0-0.4,0.2-0.4,0.4v16.5c0,0.2,0.2,0.3,0.4,0.3h1.4c0.2,0,0.4-0.2,0.4-0.3V23.8
		c0-0.2-0.2-0.4-0.4-0.4H22.9z"/>
	<path class="st1" d="M27.8,23.5h-1.4c-0.2,0-0.4,0.2-0.4,0.4v16.5c0,0.2,0.2,0.3,0.4,0.3h1.4c0.2,0,0.4-0.2,0.4-0.3V23.8
		C28.2,23.6,28,23.5,27.8,23.5z"/>
	<path class="st1" d="M19.4,40.7h1.4c0.2,0,0.4-0.2,0.4-0.3V23.8c0-0.2-0.2-0.4-0.4-0.4h-1.4c-0.2,0-0.4,0.2-0.4,0.4v16.5
		C19,40.5,19.2,40.7,19.4,40.7z"/>
	<path class="st1" d="M19.5,22c0,0,0.1,0,0.1,0h7.9c0.2,0,0.4-0.2,0.4-0.4c0,0,0-0.1,0-0.1L24.2,14c-0.2-0.4-0.6-0.5-1-0.3
		C23.1,13.8,23,13.9,23,14l-3.6,7.5C19.3,21.7,19.4,21.9,19.5,22z"/>
	<path class="st1" d="M27.8,42.1h-8.4c-0.2,0-0.4,0.2-0.4,0.3v0.3c0,2.5,2,4.6,4.6,4.6s4.6-2,4.6-4.6v-0.3
		C28.2,42.2,28,42.1,27.8,42.1z"/>
	<path class="st1" d="M41.5,13.6h-7c-1.2,0-2.1,0.9-2.1,2.1v1.8c0,0.2,0.2,0.4,0.3,0.4h2.5c0.4,0,0.7,0.3,0.7,0.7
		c0,0.4-0.3,0.7-0.7,0.7h-2.5c-0.2,0-0.3,0.2-0.3,0.4v3.5c0,0.2,0.2,0.4,0.3,0.4h2.5c0.4,0,0.7,0.3,0.7,0.7c0,0.4-0.3,0.7-0.7,0.7
		h-2.5c-0.2,0-0.3,0.2-0.3,0.4v3.5c0,0.2,0.2,0.4,0.3,0.4h2.5c0.4,0,0.7,0.3,0.7,0.7s-0.3,0.7-0.7,0.7h-2.5c-0.2,0-0.3,0.2-0.3,0.4
		v3.5c0,0.2,0.2,0.3,0.3,0.3h2.5c0.4,0,0.7,0.3,0.7,0.7s-0.3,0.7-0.7,0.7h-2.5c-0.2,0-0.3,0.2-0.3,0.3v8.8c0,1.2,0.9,2.1,2.1,2.1h7
		c1.2,0,2.1-0.9,2.1-2.1V15.7C43.6,14.6,42.7,13.6,41.5,13.6z M38,44.5c-1,0-1.8-0.8-1.8-1.8c0-1,0.8-1.8,1.8-1.8
		c1,0,1.8,0.8,1.8,1.8S39,44.5,38,44.5z"/>
</g>
</svg>
